REM MD5 b3358021412be207854aeaeb2b9c7d6f
FILE "PlayStation Underground Jampack (USA).bin" BINARY
  TRACK 01 MODE2/2352
    INDEX 01 00:00:00
  TRACK 02 AUDIO
    INDEX 00 64:43:31
    INDEX 01 64:45:31
  TRACK 03 AUDIO
    INDEX 00 66:38:58
    INDEX 01 66:40:58
  TRACK 04 AUDIO
    INDEX 00 67:44:51
    INDEX 01 67:46:51
  TRACK 05 AUDIO
    INDEX 00 67:52:17
    INDEX 01 67:54:17
REM LEADOUT 68:00:13
